<?xml version="1.0" standalone="no"?>
<!DOCTYPE svg PUBLIC "-//W3C//DTD SVG 20010904//EN"
 "http://www.w3.org/TR/2001/REC-SVG-20010904/DTD/svg10.dtd">
<svg version="1.0" xmlns="http://www.w3.org/2000/svg"
 width="700.000000pt" height="700.000000pt" viewBox="0 0 700.000000 700.000000"
 preserveAspectRatio="xMidYMid meet">
<metadata>
Created by potrace 1.11, written by Peter Selinger 2001-2013
</metadata>
<g transform="translate(0.000000,700.000000) scale(0.100000,-0.100000)"
fill="#000000" stroke="none">
<path d="M4515 6565 c-402 -75 -686 -416 -686 -825 0 -370 228 -684 581 -798
396 -129 831 58 1011 433 61 126 82 218 82 365 0 147 -21 239 -82 365 -163
339 -537 529 -906 460z"/>
<path d="M2220 6019 c-307 -47 -564 -276 -644 -574 -9 -33 -19 -105 -23 -160
-32 -526 477 -936 987 -794 268 74 479 287 552 558 29 106 29 286 0 392 -90
333 -377 564 -722 583 -47 3 -114 0 -150 -5z"/>
<path d="M4377 4709 c-65 -5 -171 -20 -235 -33 -345 -70 -528 -218 -718 -581
-31 -60 -59 -112 -60 -114 -2 -2 -30 21 -62 50 -205 188 -516 259 -1072 246
-410 -10 -619 -62 -815 -202 -146 -104 -270 -284 -404 -586 -117 -266 -367
-907 -774 -1989 -211 -560 -232 -621 -232 -677 0 -52 5 -68 30 -104 72 -101
208 -116 295 -31 37 36 146 248 1050 2040 73 145 134 262 135 260 3 -2 -388
-2416 -410 -2535 l-6 -33 916 0 915 0 0 93 c-1 456 -129 889 -322 1088 -29 30
-222 185 -429 346 -206 160 -383 302 -392 316 -88 135 12 307 172 295 47 -4
103 -28 356 -152 319 -157 459 -218 595 -259 217 -65 357 -87 590 -94 216 -6
389 11 579 57 235 58 329 96 766 311 302 148 335 158 417 121 103 -45 140
-162 85 -268 -10 -20 -149 -134 -394 -325 -208 -161 -401 -317 -430 -346 -185
-187 -304 -564 -320 -1010 l-6 -173 720 0 720 0 6 617 c4 339 8 815 8 1057 1
243 4 564 8 713 l6 273 484 -958 c266 -526 496 -970 510 -986 97 -107 270 -77
326 56 8 21 15 53 15 73 0 57 -684 1869 -939 2490 -82 199 -197 431 -263 530
-180 271 -434 395 -872 425 -156 11 -386 10 -549 -1z m-628 -1345 c41 -14 92
-36 115 -49 66 -39 152 -121 196 -188 96 -147 122 -348 66 -512 -50 -148 -152
-269 -286 -339 -91 -48 -170 -66 -286 -66 -168 0 -311 64 -429 191 -61 67
-127 192 -144 277 -39 189 17 387 151 527 166 175 393 233 617 159z"/>
</g>
</svg>
